<?xml version="1.0" encoding="utf-8"?>
<!-- Generator: Adobe Illustrator 23.0.3, SVG Export Plug-In . SVG Version: 6.00 Build 0)  -->
<svg version="1.1" id="Camada_1" xmlns="http://www.w3.org/2000/svg" xmlns:xlink="http://www.w3.org/1999/xlink" x="0px" y="0px"
	 viewBox="0 0 93.18 108" style="enable-background:new 0 0 93.18 108;" xml:space="preserve">
<style type="text/css">
	.st0{fill:#0092FF;stroke:#0092FF;stroke-width:0.3;stroke-miterlimit:10;}
	.st1{fill:#4C4C4C;}
	.st2{fill:#E65151;}
</style>
<g>
	<g>
		<path class="st0" d="M69.36,15.12L69.36,15.12c0-1.03-1.1-1.86-2.46-1.86H26.28c-1.36,0-2.46,0.83-2.46,1.86v0
			c0,1.03,1.1,1.86,2.46,1.86H66.9C68.26,16.98,69.36,16.15,69.36,15.12z"/>
		<path class="st0" d="M36.15,62.06H61.8c1.36,0,2.47-0.84,2.47-1.87v0c0-1.03-1.1-1.87-2.47-1.87H40.86
			c-0.42,0-0.68-0.36-0.45-0.63l28.57-34.21c0.25-0.3,0.38-0.65,0.38-1v-2.54h-1.76c-0.85,0-1.64,0.33-2.09,0.88L34.05,59.2
			C33.03,60.45,34.21,62.06,36.15,62.06z"/>
		<path class="st0" d="M57.28,19.94H31.63c-1.36,0-2.47,0.84-2.47,1.87v0c0,1.03,1.1,1.87,2.47,1.87h20.94
			c0.42,0,0.68,0.36,0.45,0.63L24.45,58.52c-0.25,0.3-0.38,0.65-0.38,1v2.54h1.76c0.85,0,1.64-0.33,2.09-0.88L59.38,22.8
			C60.4,21.55,59.22,19.94,57.28,19.94z"/>
		<path class="st0" d="M66.89,65.02H26.28c-1.36,0-2.47,0.84-2.47,1.87v0c0,1.03,1.1,1.87,2.47,1.87h40.61
			c1.36,0,2.47-0.84,2.47-1.87v0C69.36,65.86,68.25,65.02,66.89,65.02z"/>
	</g>
	<g>
		<path class="st1" d="M25.87,77.82l-6.01,10.3h6.2v1.84h-8.59v-1.67l6.06-10.3h-5.89v-1.84h8.23V77.82z"/>
		<path class="st1" d="M28.87,89.35c-0.6-0.5-0.9-1.27-0.9-2.29c0-0.98,0.28-1.71,0.83-2.19c0.55-0.49,1.38-0.73,2.5-0.73h2.8
			l0.13,1.56H31.3c-0.51,0-0.89,0.11-1.14,0.34c-0.25,0.22-0.38,0.57-0.38,1.03c0,0.5,0.17,0.87,0.5,1.11s0.84,0.36,1.52,0.36
			c0.74,0,1.29-0.08,1.66-0.24s0.55-0.41,0.55-0.74l0.2,1.39c-0.17,0.27-0.38,0.48-0.63,0.66c-0.25,0.17-0.54,0.3-0.87,0.38
			S32,90.1,31.59,90.1C30.38,90.1,29.47,89.85,28.87,89.35z M34.01,83.71c0-0.65-0.17-1.15-0.52-1.51s-0.83-0.54-1.47-0.54
			c-0.39,0-0.78,0.06-1.15,0.18c-0.38,0.12-0.71,0.29-1,0.5l-1.42-0.97c0.37-0.45,0.87-0.8,1.48-1.05c0.61-0.25,1.29-0.38,2.04-0.38
			c0.82,0,1.52,0.14,2.1,0.43s1.03,0.71,1.33,1.25s0.46,1.21,0.46,1.98v6.34h-1.84V83.71z"/>
		<path class="st1" d="M38.79,80.1h1.94v13.87h-1.94V80.1z M41.61,89.66c-0.46-0.29-0.79-0.71-1.01-1.25l0.13-2.06
			c0,0.42,0.08,0.79,0.23,1.08c0.15,0.3,0.37,0.53,0.66,0.68c0.29,0.16,0.64,0.24,1.05,0.24c0.64,0,1.14-0.19,1.49-0.58
			c0.35-0.39,0.53-0.94,0.53-1.65v-2.14c0-0.72-0.18-1.28-0.53-1.68s-0.85-0.6-1.49-0.6c-0.41,0-0.76,0.08-1.05,0.23
			c-0.29,0.15-0.51,0.38-0.66,0.67c-0.15,0.29-0.23,0.65-0.23,1.06l-0.2-1.9c0.3-0.58,0.69-1.02,1.17-1.33s1.02-0.47,1.61-0.47
			c0.7,0,1.29,0.16,1.79,0.47s0.88,0.77,1.14,1.37s0.39,1.33,0.39,2.18v2.15c0,0.84-0.13,1.55-0.4,2.15
			c-0.27,0.6-0.66,1.05-1.17,1.36c-0.51,0.31-1.13,0.47-1.84,0.47C42.6,90.1,42.06,89.95,41.61,89.66z"/>
		<path class="st1" d="M52.65,90.1c0,0-0.36-0.21-1.09-0.64c-0.73-0.42-1.29-1.03-1.69-1.8s-0.6-1.68-0.6-2.71v-3.79
			c0-1.03,0.2-1.93,0.6-2.71s0.96-1.38,1.69-1.81c0.73-0.43,1.57-0.64,2.52-0.64c0.79,0,1.52,0.17,2.18,0.51
			c0.67,0.34,1.22,0.82,1.67,1.44c0.45,0.62,0.75,1.34,0.91,2.16h-1.99c-0.12-0.43-0.32-0.82-0.6-1.15
			c-0.28-0.34-0.61-0.6-0.99-0.78c-0.38-0.18-0.77-0.28-1.18-0.28c-0.56,0-1.06,0.14-1.48,0.41c-0.42,0.27-0.75,0.65-0.99,1.14
			s-0.35,1.06-0.35,1.71v3.79c0,0.65,0.12,1.22,0.35,1.71s0.56,0.88,0.99,1.14c0.42,0.27,0.92,0.4,1.48,0.4
			c0.41,0,0.81-0.09,1.18-0.26c0.38-0.17,0.71-0.42,0.99-0.76c0.28-0.34,0.48-0.73,0.6-1.2h1.99c-0.16,0.82-0.46,1.54-0.91,2.16
			s-1.01,1.1-1.67,1.44s-1.39,0.51-2.18,0.51C53.13,90.1,52.65,90.1,52.65,90.1z"/>
		<path class="st1" d="M63,89.6c-0.61-0.34-1.07-0.83-1.39-1.47c-0.32-0.64-0.48-1.42-0.48-2.32V84.2c0-0.89,0.16-1.66,0.48-2.29
			c0.32-0.64,0.78-1.12,1.39-1.45s1.34-0.5,2.19-0.5s1.59,0.17,2.19,0.5s1.07,0.82,1.39,1.45c0.32,0.64,0.48,1.4,0.48,2.29v1.63
			c0,0.9-0.16,1.67-0.48,2.3c-0.32,0.64-0.78,1.12-1.39,1.46c-0.61,0.34-1.34,0.5-2.19,0.5S63.61,89.93,63,89.6z M66.77,87.62
			c0.37-0.42,0.56-1.02,0.56-1.79V84.2c0-0.77-0.19-1.36-0.56-1.78s-0.89-0.63-1.57-0.63s-1.2,0.21-1.57,0.63s-0.56,1.01-0.56,1.78
			v1.63c0,0.77,0.19,1.36,0.56,1.79s0.89,0.64,1.57,0.64S66.4,88.05,66.77,87.62z"/>
		<path class="st1" d="M71.25,80.1h4.45v1.75h-4.45V80.1z M72.83,89.35c-0.37-0.44-0.56-1.09-0.56-1.95V77.23h1.94v10.18
			c0,0.24,0.05,0.43,0.14,0.56c0.09,0.13,0.23,0.19,0.42,0.19h0.93v1.84h-1.12C73.78,90.01,73.2,89.79,72.83,89.35z"/>
	</g>
</g>
<g id="Grupo_37" transform="translate(-132 -512)">
	<circle id="Elipse_4" class="st2" cx="-203.46" cy="565.88" r="5.5"/>
	<text transform="matrix(1 0 0 1 -205.96 569.375)" style="fill:#FFFFFF; font-family:'Montserrat-Regular'; font-size:9px;">2</text>
</g>
</svg>
